<?xml version="1.0" encoding="UTF-8"?>
<svg xmlns="http://www.w3.org/2000/svg"
     xmlns:xlink="http://www.w3.org/1999/xlink"
     version="1.2"
     width="160mm" height="160mm" viewBox="0 0 160 160"
     stroke="none"
     fill="#000000"
     stroke-width="0.3"
     font-size="3.88"
>
<g stroke-width="0.17" fill="#000000" fill-opacity="0.000" stroke="#D3D3D3" id="img-39330679-1">
  <g transform="translate(103.56,27.86)">
    <path fill="none" d="M-0.26,0.09 L 0.26 -0.09" class="primitive"/>
  </g>
  <g transform="translate(115.23,29.35)">
    <path fill="none" d="M-0.26,-0.07 L 0.26 0.07" class="primitive"/>
  </g>
  <g transform="translate(110.3,46.28)">
    <path fill="none" d="M0.27,0.06 L -0.27 -0.06" class="primitive"/>
  </g>
  <g transform="translate(76.19,116.53)">
    <path fill="none" d="M0.01,0.04 L -0.01 -0.04" class="primitive"/>
  </g>
  <g transform="translate(76.06,114.43)">
    <path fill="none" d="M-0,0.23 L 0 -0.23" class="primitive"/>
  </g>
  <g transform="translate(107.31,58.6)">
    <path fill="none" d="M-0.22,0.1 L 0.22 -0.1" class="primitive"/>
  </g>
  <g transform="translate(107.4,59.37)">
    <path fill="none" d="M-0.25,-0.06 L 0.25 0.06" class="primitive"/>
  </g>
  <g transform="translate(104.34,59.08)">
    <path fill="none" d="M0.91,0 L -0.91 -0" class="primitive"/>
  </g>
  <g transform="translate(95.07,78.45)">
    <path fill="none" d="M1.17,0.18 L -1.17 -0.18" class="primitive"/>
  </g>
  <g transform="translate(99.39,79.08)">
    <path fill="none" d="M-1.25,-0.18 L 1.25 0.18" class="primitive"/>
  </g>
  <g transform="translate(136.88,64.74)">
    <path fill="none" d="M0.07,0.27 L -0.07 -0.27" class="primitive"/>
  </g>
  <g transform="translate(90.58,39.35)">
    <path fill="none" d="M-0.02,-0.24 L 0.02 0.24" class="primitive"/>
  </g>
  <g transform="translate(44.98,129.52)">
    <path fill="none" d="M0.24,0.13 L -0.24 -0.13" class="primitive"/>
  </g>
  <g transform="translate(41.6,72.72)">
    <path fill="none" d="M0.09,-0.09 L -0.09 0.09" class="primitive"/>
  </g>
  <g transform="translate(66.51,111.03)">
    <path fill="none" d="M0.03,0.34 L -0.03 -0.34" class="primitive"/>
  </g>
  <g transform="translate(66.32,114.08)">
    <path fill="none" d="M0.14,-0.81 L -0.14 0.81" class="primitive"/>
  </g>
  <g transform="translate(44.6,58.41)">
    <path fill="none" d="M-0.05,0.13 L 0.05 -0.13" class="primitive"/>
  </g>
  <g transform="translate(97.76,127.76)">
    <path fill="none" d="M0.05,-0.14 L -0.05 0.14" class="primitive"/>
  </g>
  <g transform="translate(41.25,59.6)">
    <path fill="none" d="M-0.04,0.01 L 0.04 -0.01" class="primitive"/>
  </g>
  <g transform="translate(91.22,78.33)">
    <path fill="none" d="M-0.77,0.09 L 0.77 -0.09" class="primitive"/>
  </g>
  <g transform="translate(88.01,78.57)">
    <path fill="none" d="M0.53,-0.02 L -0.53 0.02" class="primitive"/>
  </g>
  <g transform="translate(110.54,52.34)">
    <path fill="none" d="M-0.22,0.06 L 0.22 -0.06" class="primitive"/>
  </g>
  <g transform="translate(108.47,52.8)">
    <path fill="none" d="M-0.02,0 L 0.02 -0" class="primitive"/>
  </g>
  <g transform="translate(98.48,126.34)">
    <path fill="none" d="M-0.1,0.14 L 0.1 -0.14" class="primitive"/>
  </g>
  <g transform="translate(91.26,44.93)">
    <path fill="none" d="M-0.08,-0.16 L 0.08 0.16" class="primitive"/>
  </g>
  <g transform="translate(53.5,60.18)">
    <path fill="none" d="M-0,-0.16 L 0 0.16" class="primitive"/>
  </g>
  <g transform="translate(52.88,61.47)">
    <path fill="none" d="M-0.13,0.1 L 0.13 -0.1" class="primitive"/>
  </g>
  <g transform="translate(94.26,53.68)">
    <path fill="none" d="M0.6,1.47 L -0.6 -1.47" class="primitive"/>
  </g>
  <g transform="translate(96.87,57.39)">
    <path fill="none" d="M-0.91,-0.74 L 0.91 0.74" class="primitive"/>
  </g>
  <g transform="translate(59.43,26.45)">
    <path fill="none" d="M0.28,0.02 L -0.28 -0.02" class="primitive"/>
  </g>
  <g transform="translate(110.41,84.39)">
    <path fill="none" d="M-0.71,-0.5 L 0.71 0.5" class="primitive"/>
  </g>
  <g transform="translate(107.35,82.15)">
    <path fill="none" d="M0.8,0.6 L -0.8 -0.6" class="primitive"/>
  </g>
  <g transform="translate(49.31,47.53)">
    <path fill="none" d="M-0.01,-0.02 L 0.01 0.02" class="primitive"/>
  </g>
  <g transform="translate(50.61,49.19)">
    <path fill="none" d="M-0.13,-0.16 L 0.13 0.16" class="primitive"/>
  </g>
  <g transform="translate(49.91,90.1)">
    <path fill="none" d="M1.08,-0.28 L -1.08 0.28" class="primitive"/>
  </g>
  <g transform="translate(53.25,89.22)">
    <path fill="none" d="M-0.4,0.11 L 0.4 -0.11" class="primitive"/>
  </g>
  <g transform="translate(101.13,106.45)">
    <path fill="none" d="M0.13,0.06 L -0.13 -0.06" class="primitive"/>
  </g>
  <g transform="translate(102.27,78.36)">
    <path fill="none" d="M0.15,-0.22 L -0.15 0.22" class="primitive"/>
  </g>
  <g transform="translate(103.68,76.55)">
    <path fill="none" d="M-0.08,0.08 L 0.08 -0.08" class="primitive"/>
  </g>
  <g transform="translate(78.52,138.73)">
    <path fill="none" d="M0.28,0 L -0.28 -0" class="primitive"/>
  </g>
  <g transform="translate(56.09,105.01)">
    <path fill="none" d="M0.7,-0.45 L -0.7 0.45" class="primitive"/>
  </g>
  <g transform="translate(80.19,45.66)">
    <path fill="none" d="M0.4,0.16 L -0.4 -0.16" class="primitive"/>
  </g>
  <g transform="translate(83.09,46.45)">
    <path fill="none" d="M-0.65,-0.12 L 0.65 0.12" class="primitive"/>
  </g>
  <g transform="translate(53.53,126.53)">
    <path fill="none" d="M-0.01,0.01 L 0.01 -0.01" class="primitive"/>
  </g>
  <g transform="translate(122.96,126.83)">
    <path fill="none" d="M0.09,-0.27 L -0.09 0.27" class="primitive"/>
  </g>
  <g transform="translate(45.98,91.12)">
    <path fill="none" d="M-0.98,0.26 L 0.98 -0.26" class="primitive"/>
  </g>
  <g transform="translate(42.77,91.54)">
    <path fill="none" d="M0.34,0.02 L -0.34 -0.02" class="primitive"/>
  </g>
  <g transform="translate(42.97,92.27)">
    <path fill="none" d="M0.27,-0.16 L -0.27 0.16" class="primitive"/>
  </g>
  <g transform="translate(64.18,51.35)">
    <path fill="none" d="M0.09,0.16 L -0.09 -0.16" class="primitive"/>
  </g>
  <g transform="translate(89.77,113.35)">
    <path fill="none" d="M-0.43,0.08 L 0.43 -0.08" class="primitive"/>
  </g>
  <g transform="translate(88.79,113.34)">
    <path fill="none" d="M0.4,-0.28 L -0.4 0.28" class="primitive"/>
  </g>
  <g transform="translate(87.5,114.52)">
    <path fill="none" d="M0.22,-0.23 L -0.22 0.23" class="primitive"/>
  </g>
  <g transform="translate(88.99,35.13)">
    <path fill="none" d="M-0.21,-0.22 L 0.21 0.22" class="primitive"/>
  </g>
  <g transform="translate(55.42,120.84)">
    <path fill="none" d="M0.08,-0.02 L -0.08 0.02" class="primitive"/>
  </g>
  <g transform="translate(35.16,116.29)">
    <path fill="none" d="M-0.23,0.11 L 0.23 -0.11" class="primitive"/>
  </g>
  <g transform="translate(93.79,21.46)">
    <path fill="none" d="M0.25,0.08 L -0.25 -0.08" class="primitive"/>
  </g>
  <g transform="translate(46.29,76.34)">
    <path fill="none" d="M-0.04,0.14 L 0.04 -0.14" class="primitive"/>
  </g>
  <g transform="translate(92.01,77.24)">
    <path fill="none" d="M0.23,0.22 L -0.23 -0.22" class="primitive"/>
  </g>
  <g transform="translate(57.09,120.85)">
    <path fill="none" d="M0.14,0.03 L -0.14 -0.03" class="primitive"/>
  </g>
  <g transform="translate(102.79,39.7)">
    <path fill="none" d="M-0.19,-0.2 L 0.19 0.2" class="primitive"/>
  </g>
  <g transform="translate(90.38,75.59)">
    <path fill="none" d="M0.05,0.05 L -0.05 -0.05" class="primitive"/>
  </g>
  <g transform="translate(103.69,80.18)">
    <path fill="none" d="M-1.19,-0.45 L 1.19 0.45" class="primitive"/>
  </g>
  <g transform="translate(113.24,110.6)">
    <path fill="none" d="M0.09,0.17 L -0.09 -0.17" class="primitive"/>
  </g>
  <g transform="translate(90.02,34.55)">
    <path fill="none" d="M-0.06,0.54 L 0.06 -0.54" class="primitive"/>
  </g>
  <g transform="translate(90.26,38.3)">
    <path fill="none" d="M-0.23,-1.3 L 0.23 1.3" class="primitive"/>
  </g>
  <g transform="translate(76.33,118.56)">
    <path fill="none" d="M0,-0.17 L -0 0.17" class="primitive"/>
  </g>
  <g transform="translate(99.22,104.81)">
    <path fill="none" d="M0.32,0.44 L -0.32 -0.44" class="primitive"/>
  </g>
  <g transform="translate(100.52,107.32)">
    <path fill="none" d="M-0.12,-0.37 L 0.12 0.37" class="primitive"/>
  </g>
  <g transform="translate(143.29,101.05)">
    <path fill="none" d="M0.14,0.05 L -0.14 -0.05" class="primitive"/>
  </g>
  <g transform="translate(66.54,108.89)">
    <path fill="none" d="M0.02,-0.11 L -0.02 0.11" class="primitive"/>
  </g>
  <g transform="translate(65.51,109.64)">
    <path fill="none" d="M-0.08,-0.01 L 0.08 0.01" class="primitive"/>
  </g>
  <g transform="translate(25.1,89.22)">
    <path fill="none" d="M0.03,0.01 L -0.03 -0.01" class="primitive"/>
  </g>
  <g transform="translate(92.55,48.63)">
    <path fill="none" d="M0.49,1.76 L -0.49 -1.76" class="primitive"/>
  </g>
  <g transform="translate(23.51,55.26)">
    <path fill="none" d="M0.09,-0.03 L -0.09 0.03" class="primitive"/>
  </g>
  <g transform="translate(24.13,54.2)">
    <path fill="none" d="M0.04,0.15 L -0.04 -0.15" class="primitive"/>
  </g>
  <g transform="translate(77.58,22.03)">
    <path fill="none" d="M-0.26,-0.08 L 0.26 0.08" class="primitive"/>
  </g>
  <g transform="translate(122.18,104.05)">
    <path fill="none" d="M-0.08,-0.03 L 0.08 0.03" class="primitive"/>
  </g>
  <g transform="translate(120.63,104.07)">
    <path fill="none" d="M-0.19,0.14 L 0.19 -0.14" class="primitive"/>
  </g>
  <g transform="translate(54.81,107)">
    <path fill="none" d="M0.02,0.08 L -0.02 -0.08" class="primitive"/>
  </g>
  <g transform="translate(145.52,78.91)">
    <path fill="none" d="M0.24,0.13 L -0.24 -0.13" class="primitive"/>
  </g>
  <g transform="translate(43.26,59.29)">
    <path fill="none" d="M0.08,-0.01 L -0.08 0.01" class="primitive"/>
  </g>
  <g transform="translate(41.95,71.39)">
    <path fill="none" d="M0.05,0.15 L -0.05 -0.15" class="primitive"/>
  </g>
  <g transform="translate(80.5,15.79)">
    <path fill="none" d="M0.27,0.08 L -0.27 -0.08" class="primitive"/>
  </g>
  <g transform="translate(113.06,85.81)">
    <path fill="none" d="M0.24,0.07 L -0.24 -0.07" class="primitive"/>
  </g>
  <g transform="translate(106.65,80.26)">
    <path fill="none" d="M0.13,-0.11 L -0.13 0.11" class="primitive"/>
  </g>
  <g transform="translate(68.22,136.77)">
    <path fill="none" d="M0.21,0.19 L -0.21 -0.19" class="primitive"/>
  </g>
  <g transform="translate(92.14,114.1)">
    <path fill="none" d="M0.32,0.32 L -0.32 -0.32" class="primitive"/>
  </g>
  <g transform="translate(94.09,115.22)">
    <path fill="none" d="M0.01,0 L -0.01 -0" class="primitive"/>
  </g>
  <g transform="translate(45.44,76.58)">
    <path fill="none" d="M-0.11,-0.1 L 0.11 0.1" class="primitive"/>
  </g>
  <g transform="translate(45.16,77.82)">
    <path fill="none" d="M0.14,-0.11 L -0.14 0.11" class="primitive"/>
  </g>
  <g transform="translate(65.7,117.5)">
    <path fill="none" d="M0.13,-0.72 L -0.13 0.72" class="primitive"/>
  </g>
  <g transform="translate(112.99,51.41)">
    <path fill="none" d="M-0.43,0.2 L 0.43 -0.2" class="primitive"/>
  </g>
  <g transform="translate(86.76,116.5)">
    <path fill="none" d="M0.02,0.12 L -0.02 -0.12" class="primitive"/>
  </g>
  <g transform="translate(77.96,44.54)">
    <path fill="none" d="M0.12,0.08 L -0.12 -0.08" class="primitive"/>
  </g>
  <g transform="translate(23.54,73.89)">
    <path fill="none" d="M0.1,0.53 L -0.1 -0.53" class="primitive"/>
  </g>
  <g transform="translate(112.98,106.5)">
    <path fill="none" d="M0.02,-0.05 L -0.02 0.05" class="primitive"/>
  </g>
  <g transform="translate(114.06,105.04)">
    <path fill="none" d="M0.07,-0.05 L -0.07 0.05" class="primitive"/>
  </g>
  <g transform="translate(41.19,106.56)">
    <path fill="none" d="M0.16,0.22 L -0.16 -0.22" class="primitive"/>
  </g>
  <g transform="translate(129.48,118.58)">
    <path fill="none" d="M-0.48,0.18 L 0.48 -0.18" class="primitive"/>
  </g>
  <g transform="translate(43.11,78.86)">
    <path fill="none" d="M-0.23,0.07 L 0.23 -0.07" class="primitive"/>
  </g>
  <g transform="translate(54.19,106.69)">
    <path fill="none" d="M0.07,-0.13 L -0.07 0.13" class="primitive"/>
  </g>
  <g transform="translate(125.99,84.33)">
    <path fill="none" d="M0.03,0.26 L -0.03 -0.26" class="primitive"/>
  </g>
  <g transform="translate(91.77,112.51)">
    <path fill="none" d="M0.08,-0.07 L -0.08 0.07" class="primitive"/>
  </g>
  <g transform="translate(40.95,58.67)">
    <path fill="none" d="M-0.45,-0.26 L 0.45 0.26" class="primitive"/>
  </g>
  <g transform="translate(112.65,108.52)">
    <path fill="none" d="M-0,-0.11 L 0 0.11" class="primitive"/>
  </g>
  <g transform="translate(65.2,120.45)">
    <path fill="none" d="M0.05,-0.34 L -0.05 0.34" class="primitive"/>
  </g>
  <g transform="translate(129.99,118.54)">
    <path fill="none" d="M-0.01,0 L 0.01 -0" class="primitive"/>
  </g>
  <g transform="translate(100.5,58.91)">
    <path fill="none" d="M-1.02,-0.09 L 1.02 0.09" class="primitive"/>
  </g>
  <g transform="translate(61.97,47.32)">
    <path fill="none" d="M0.01,0.01 L -0.01 -0.01" class="primitive"/>
  </g>
  <g transform="translate(63.04,49.26)">
    <path fill="none" d="M-0.13,-0.25 L 0.13 0.25" class="primitive"/>
  </g>
  <g transform="translate(94.59,39.94)">
    <path fill="none" d="M-0.23,0.27 L 0.23 -0.27" class="primitive"/>
  </g>
  <g transform="translate(92.63,42.32)">
    <path fill="none" d="M0.5,-0.63 L -0.5 0.63" class="primitive"/>
  </g>
  <g transform="translate(112.52,86.76)">
    <path fill="none" d="M-0.2,-0.43 L 0.2 0.43" class="primitive"/>
  </g>
  <g transform="translate(112.82,84.82)">
    <path fill="none" d="M-0.13,0.09 L 0.13 -0.09" class="primitive"/>
  </g>
  <g transform="translate(84.18,45.67)">
    <path fill="none" d="M0.1,0.2 L -0.1 -0.2" class="primitive"/>
  </g>
  <g transform="translate(86.59,46.79)">
    <path fill="none" d="M-0.93,-0.03 L 0.93 0.03" class="primitive"/>
  </g>
  <g transform="translate(61.03,45.65)">
    <path fill="none" d="M0.01,0.02 L -0.01 -0.02" class="primitive"/>
  </g>
  <g transform="translate(50.02,34.65)">
    <path fill="none" d="M-0.26,0.04 L 0.26 -0.04" class="primitive"/>
  </g>
  <g transform="translate(136.71,96.5)">
    <path fill="none" d="M0,0.02 L -0 -0.02" class="primitive"/>
  </g>
  <g transform="translate(136.89,94.81)">
    <path fill="none" d="M0.05,-0.11 L -0.05 0.11" class="primitive"/>
  </g>
  <g transform="translate(23.42,73.36)">
    <path fill="none" d="M-0,-0 L 0 0" class="primitive"/>
  </g>
  <g transform="translate(97.4,102.38)">
    <path fill="none" d="M-0.34,-0.44 L 0.34 0.44" class="primitive"/>
  </g>
  <g transform="translate(95.54,99.98)">
    <path fill="none" d="M0.34,0.43 L -0.34 -0.43" class="primitive"/>
  </g>
  <g transform="translate(25.75,90.31)">
    <path fill="none" d="M-0.04,0.13 L 0.04 -0.13" class="primitive"/>
  </g>
  <g transform="translate(139.99,78.57)">
    <path fill="none" d="M-0.21,-0.17 L 0.21 0.17" class="primitive"/>
  </g>
  <g transform="translate(34.84,38.21)">
    <path fill="none" d="M0.19,-0.2 L -0.19 0.2" class="primitive"/>
  </g>
  <g transform="translate(114.37,83.61)">
    <path fill="none" d="M-0.08,0.07 L 0.08 -0.07" class="primitive"/>
  </g>
  <g transform="translate(113.63,89.03)">
    <path fill="none" d="M-0.06,-0.11 L 0.06 0.11" class="primitive"/>
  </g>
  <g transform="translate(106.77,81.07)">
    <path fill="none" d="M-0.04,-0 L 0.04 0" class="primitive"/>
  </g>
  <g transform="translate(52.03,50.94)">
    <path fill="none" d="M0.08,0.1 L -0.08 -0.1" class="primitive"/>
  </g>
  <g transform="translate(91.23,43.24)">
    <path fill="none" d="M0.37,1.75 L -0.37 -1.75" class="primitive"/>
  </g>
  <g transform="translate(53.54,106.69)">
    <path fill="none" d="M-0.25,0.17 L 0.25 -0.17" class="primitive"/>
  </g>
  <g transform="translate(101.05,109.54)">
    <path fill="none" d="M-0,-0.02 L 0 0.02" class="primitive"/>
  </g>
  <g transform="translate(87.94,47.74)">
    <path fill="none" d="M-0.04,0.07 L 0.04 -0.07" class="primitive"/>
  </g>
  <g transform="translate(53,106.22)">
    <path fill="none" d="M0.63,-0.09 L -0.63 0.09" class="primitive"/>
  </g>
  <g transform="translate(89.32,46.86)">
    <path fill="none" d="M-0.12,-0 L 0.12 0" class="primitive"/>
  </g>
  <g transform="translate(142.8,88.78)">
    <path fill="none" d="M-0.22,0.21 L 0.22 -0.21" class="primitive"/>
  </g>
  <g transform="translate(90.01,45.27)">
    <path fill="none" d="M-0.86,0.88 L 0.86 -0.88" class="primitive"/>
  </g>
  <g transform="translate(88.76,47.47)">
    <path fill="none" d="M0.11,0.25 L -0.11 -0.25" class="primitive"/>
  </g>
  <g transform="translate(85.36,78.6)">
    <path fill="none" d="M0.19,0 L -0.19 -0" class="primitive"/>
  </g>
  <g transform="translate(85.94,116.29)">
    <path fill="none" d="M-0.08,0.1 L 0.08 -0.1" class="primitive"/>
  </g>
  <g transform="translate(50.17,107.02)">
    <path fill="none" d="M0.37,-0.17 L -0.37 0.17" class="primitive"/>
  </g>
  <g transform="translate(48.6,27.38)">
    <path fill="none" d="M0.26,-0.07 L -0.26 0.07" class="primitive"/>
  </g>
  <g transform="translate(136.71,98.25)">
    <path fill="none" d="M-0.03,0.13 L 0.03 -0.13" class="primitive"/>
  </g>
  <g transform="translate(56.66,127.76)">
    <path fill="none" d="M-0.01,-0.02 L 0.01 0.02" class="primitive"/>
  </g>
  <g transform="translate(55.37,126.54)">
    <path fill="none" d="M-0.03,-0.01 L 0.03 0.01" class="primitive"/>
  </g>
  <g transform="translate(59.18,137.26)">
    <path fill="none" d="M0.26,0.1 L -0.26 -0.1" class="primitive"/>
  </g>
  <g transform="translate(93.84,97.77)">
    <path fill="none" d="M0.19,0.26 L -0.19 -0.26" class="primitive"/>
  </g>
</g>
<g stroke-width="0.17" stroke="#D3D3D3" id="img-39330679-2">
</g>
<g font-size="4" stroke="#000000" stroke-opacity="0.000" fill="#000000" id="img-39330679-3">
</g>
<g stroke-width="0" stroke="#000000" stroke-opacity="0.000" fill="#40E0D0" id="img-39330679-4">
  <g transform="translate(104.2,27.62)">
    <circle cx="0" cy="0" r="0.92" class="primitive"/>
  </g>
  <g transform="translate(47.35,134.15)">
    <circle cx="0" cy="0" r="0.92" class="primitive"/>
  </g>
  <g transform="translate(115.89,29.54)">
    <circle cx="0" cy="0" r="0.92" class="primitive"/>
  </g>
  <g transform="translate(109.63,46.14)">
    <circle cx="0" cy="0" r="0.92" class="primitive"/>
  </g>
  <g transform="translate(76.04,115.62)">
    <circle cx="0" cy="0" r="0.92" class="primitive"/>
  </g>
  <g transform="translate(106.22,59.09)">
    <circle cx="0" cy="0" r="0.92" class="primitive"/>
  </g>
  <g transform="translate(102.91,28.1)">
    <circle cx="0" cy="0" r="0.92" class="primitive"/>
  </g>
  <g transform="translate(97.19,78.77)">
    <circle cx="0" cy="0" r="0.92" class="primitive"/>
  </g>
  <g transform="translate(136.71,64.08)">
    <circle cx="0" cy="0" r="0.92" class="primitive"/>
  </g>
  <g transform="translate(90.5,38.14)">
    <circle cx="0" cy="0" r="0.92" class="primitive"/>
  </g>
  <g transform="translate(44.38,129.17)">
    <circle cx="0" cy="0" r="0.92" class="primitive"/>
  </g>
  <g transform="translate(40.99,73.29)">
    <circle cx="0" cy="0" r="0.92" class="primitive"/>
  </g>
  <g transform="translate(114.56,29.17)">
    <circle cx="0" cy="0" r="0.92" class="primitive"/>
  </g>
  <g transform="translate(66.63,112.32)">
    <circle cx="0" cy="0" r="0.92" class="primitive"/>
  </g>
  <g transform="translate(48.44,138.61)">
    <circle cx="0" cy="0" r="0.92" class="primitive"/>
  </g>
  <g transform="translate(44.9,57.64)">
    <circle cx="0" cy="0" r="0.92" class="primitive"/>
  </g>
  <g transform="translate(97.5,128.53)">
    <circle cx="0" cy="0" r="0.92" class="primitive"/>
  </g>
  <g transform="translate(40.27,59.8)">
    <circle cx="0" cy="0" r="0.92" class="primitive"/>
  </g>
  <g transform="translate(140.17,105.53)">
    <circle cx="0" cy="0" r="0.92" class="primitive"/>
  </g>
  <g transform="translate(128.66,124.39)">
    <circle cx="0" cy="0" r="0.92" class="primitive"/>
  </g>
  <g transform="translate(116.06,128.38)">
    <circle cx="0" cy="0" r="0.92" class="primitive"/>
  </g>
  <g transform="translate(89.5,78.53)">
    <circle cx="0" cy="0" r="0.92" class="primitive"/>
  </g>
  <g transform="translate(109.4,52.67)">
    <circle cx="0" cy="0" r="0.92" class="primitive"/>
  </g>
  <g transform="translate(114.84,24.04)">
    <circle cx="0" cy="0" r="0.92" class="primitive"/>
  </g>
  <g transform="translate(73.7,15.33)">
    <circle cx="0" cy="0" r="0.92" class="primitive"/>
  </g>
  <g transform="translate(98.94,125.7)">
    <circle cx="0" cy="0" r="0.92" class="primitive"/>
  </g>
  <g transform="translate(90.73,43.92)">
    <circle cx="0" cy="0" r="0.92" class="primitive"/>
  </g>
  <g transform="translate(53.52,60.99)">
    <circle cx="0" cy="0" r="0.92" class="primitive"/>
  </g>
  <g transform="translate(95.21,56.04)">
    <circle cx="0" cy="0" r="0.92" class="primitive"/>
  </g>
  <g transform="translate(58.74,26.41)">
    <circle cx="0" cy="0" r="0.92" class="primitive"/>
  </g>
  <g transform="translate(108.91,83.33)">
    <circle cx="0" cy="0" r="0.92" class="primitive"/>
  </g>
  <g transform="translate(49.88,48.28)">
    <circle cx="0" cy="0" r="0.92" class="primitive"/>
  </g>
  <g transform="translate(51.92,89.58)">
    <circle cx="0" cy="0" r="0.92" class="primitive"/>
  </g>
  <g transform="translate(102.15,106.88)">
    <circle cx="0" cy="0" r="0.92" class="primitive"/>
  </g>
  <g transform="translate(102.95,77.34)">
    <circle cx="0" cy="0" r="0.92" class="primitive"/>
  </g>
  <g transform="translate(77.83,138.72)">
    <circle cx="0" cy="0" r="0.92" class="primitive"/>
  </g>
  <g transform="translate(69.5,17.89)">
    <circle cx="0" cy="0" r="0.92" class="primitive"/>
  </g>
  <g transform="translate(57.59,104.05)">
    <circle cx="0" cy="0" r="0.92" class="primitive"/>
  </g>
  <g transform="translate(63.55,142.6)">
    <circle cx="0" cy="0" r="0.92" class="primitive"/>
  </g>
  <g transform="translate(114.75,135.26)">
    <circle cx="0" cy="0" r="0.92" class="primitive"/>
  </g>
  <g transform="translate(145.19,60.61)">
    <circle cx="0" cy="0" r="0.92" class="primitive"/>
  </g>
  <g transform="translate(81.5,46.16)">
    <circle cx="0" cy="0" r="0.92" class="primitive"/>
  </g>
  <g transform="translate(52.62,126.88)">
    <circle cx="0" cy="0" r="0.92" class="primitive"/>
  </g>
  <g transform="translate(19.9,100.1)">
    <circle cx="0" cy="0" r="0.92" class="primitive"/>
  </g>
  <g transform="translate(122.75,127.47)">
    <circle cx="0" cy="0" r="0.92" class="primitive"/>
  </g>
  <g transform="translate(44.07,91.62)">
    <circle cx="0" cy="0" r="0.92" class="primitive"/>
  </g>
  <g transform="translate(64.73,52.36)">
    <circle cx="0" cy="0" r="0.92" class="primitive"/>
  </g>
  <g transform="translate(88.4,113.61)">
    <circle cx="0" cy="0" r="0.92" class="primitive"/>
  </g>
  <g transform="translate(88.11,34.21)">
    <circle cx="0" cy="0" r="0.92" class="primitive"/>
  </g>
  <g transform="translate(54.56,121.02)">
    <circle cx="0" cy="0" r="0.92" class="primitive"/>
  </g>
  <g transform="translate(23.14,50.53)">
    <circle cx="0" cy="0" r="0.92" class="primitive"/>
  </g>
  <g transform="translate(35.79,115.98)">
    <circle cx="0" cy="0" r="0.92" class="primitive"/>
  </g>
  <g transform="translate(52.74,138.19)">
    <circle cx="0" cy="0" r="0.92" class="primitive"/>
  </g>
  <g transform="translate(93.13,21.24)">
    <circle cx="0" cy="0" r="0.92" class="primitive"/>
  </g>
  <g transform="translate(46.52,75.56)">
    <circle cx="0" cy="0" r="0.92" class="primitive"/>
  </g>
  <g transform="translate(53.47,59.38)">
    <circle cx="0" cy="0" r="0.92" class="primitive"/>
  </g>
  <g transform="translate(17.4,95.96)">
    <circle cx="0" cy="0" r="0.92" class="primitive"/>
  </g>
  <g transform="translate(92.95,78.13)">
    <circle cx="0" cy="0" r="0.92" class="primitive"/>
  </g>
  <g transform="translate(56.29,120.67)">
    <circle cx="0" cy="0" r="0.92" class="primitive"/>
  </g>
  <g transform="translate(60.11,26.49)">
    <circle cx="0" cy="0" r="0.92" class="primitive"/>
  </g>
  <g transform="translate(103.27,40.19)">
    <circle cx="0" cy="0" r="0.92" class="primitive"/>
  </g>
  <g transform="translate(91.08,76.35)">
    <circle cx="0" cy="0" r="0.92" class="primitive"/>
  </g>
  <g transform="translate(16.79,102.6)">
    <circle cx="0" cy="0" r="0.92" class="primitive"/>
  </g>
  <g transform="translate(105.34,17.82)">
    <circle cx="0" cy="0" r="0.92" class="primitive"/>
  </g>
  <g transform="translate(108.41,58.11)">
    <circle cx="0" cy="0" r="0.92" class="primitive"/>
  </g>
  <g transform="translate(94.43,141.61)">
    <circle cx="0" cy="0" r="0.92" class="primitive"/>
  </g>
  <g transform="translate(101.59,79.39)">
    <circle cx="0" cy="0" r="0.92" class="primitive"/>
  </g>
  <g transform="translate(26.26,121.95)">
    <circle cx="0" cy="0" r="0.92" class="primitive"/>
  </g>
  <g transform="translate(113.8,111.62)">
    <circle cx="0" cy="0" r="0.92" class="primitive"/>
  </g>
  <g transform="translate(89.86,36.05)">
    <circle cx="0" cy="0" r="0.92" class="primitive"/>
  </g>
  <g transform="translate(83.14,13.76)">
    <circle cx="0" cy="0" r="0.92" class="primitive"/>
  </g>
  <g transform="translate(76.33,117.44)">
    <circle cx="0" cy="0" r="0.92" class="primitive"/>
  </g>
  <g transform="translate(79.6,146.04)">
    <circle cx="0" cy="0" r="0.92" class="primitive"/>
  </g>
  <g transform="translate(76.07,113.24)">
    <circle cx="0" cy="0" r="0.92" class="primitive"/>
  </g>
  <g transform="translate(101.91,143.56)">
    <circle cx="0" cy="0" r="0.92" class="primitive"/>
  </g>
  <g transform="translate(100.12,106.03)">
    <circle cx="0" cy="0" r="0.92" class="primitive"/>
  </g>
  <g transform="translate(16.74,80.67)">
    <circle cx="0" cy="0" r="0.92" class="primitive"/>
  </g>
  <g transform="translate(144.34,101.41)">
    <circle cx="0" cy="0" r="0.92" class="primitive"/>
  </g>
  <g transform="translate(66.39,109.73)">
    <circle cx="0" cy="0" r="0.92" class="primitive"/>
  </g>
  <g transform="translate(24.23,88.93)">
    <circle cx="0" cy="0" r="0.92" class="primitive"/>
  </g>
  <g transform="translate(93.3,51.32)">
    <circle cx="0" cy="0" r="0.92" class="primitive"/>
  </g>
  <g transform="translate(22.69,55.53)">
    <circle cx="0" cy="0" r="0.92" class="primitive"/>
  </g>
  <g transform="translate(67.83,145.4)">
    <circle cx="0" cy="0" r="0.92" class="primitive"/>
  </g>
  <g transform="translate(48.75,46.77)">
    <circle cx="0" cy="0" r="0.92" class="primitive"/>
  </g>
  <g transform="translate(145.95,64.91)">
    <circle cx="0" cy="0" r="0.92" class="primitive"/>
  </g>
  <g transform="translate(144.64,93.84)">
    <circle cx="0" cy="0" r="0.92" class="primitive"/>
  </g>
  <g transform="translate(84.99,146.67)">
    <circle cx="0" cy="0" r="0.92" class="primitive"/>
  </g>
  <g transform="translate(23.93,53.42)">
    <circle cx="0" cy="0" r="0.92" class="primitive"/>
  </g>
  <g transform="translate(98.02,126.98)">
    <circle cx="0" cy="0" r="0.92" class="primitive"/>
  </g>
  <g transform="translate(78.24,22.24)">
    <circle cx="0" cy="0" r="0.92" class="primitive"/>
  </g>
  <g transform="translate(23.96,116.82)">
    <circle cx="0" cy="0" r="0.92" class="primitive"/>
  </g>
  <g transform="translate(121.21,103.64)">
    <circle cx="0" cy="0" r="0.92" class="primitive"/>
  </g>
  <g transform="translate(31.59,36.13)">
    <circle cx="0" cy="0" r="0.92" class="primitive"/>
  </g>
  <g transform="translate(55.05,108.02)">
    <circle cx="0" cy="0" r="0.92" class="primitive"/>
  </g>
  <g transform="translate(146.6,74.25)">
    <circle cx="0" cy="0" r="0.92" class="primitive"/>
  </g>
  <g transform="translate(144.91,78.59)">
    <circle cx="0" cy="0" r="0.92" class="primitive"/>
  </g>
  <g transform="translate(94.4,17.1)">
    <circle cx="0" cy="0" r="0.92" class="primitive"/>
  </g>
  <g transform="translate(44.3,59.18)">
    <circle cx="0" cy="0" r="0.92" class="primitive"/>
  </g>
  <g transform="translate(137.22,107.71)">
    <circle cx="0" cy="0" r="0.92" class="primitive"/>
  </g>
  <g transform="translate(41.69,70.63)">
    <circle cx="0" cy="0" r="0.92" class="primitive"/>
  </g>
  <g transform="translate(15.66,64.3)">
    <circle cx="0" cy="0" r="0.92" class="primitive"/>
  </g>
  <g transform="translate(79.84,15.6)">
    <circle cx="0" cy="0" r="0.92" class="primitive"/>
  </g>
  <g transform="translate(64.54,19.26)">
    <circle cx="0" cy="0" r="0.92" class="primitive"/>
  </g>
  <g transform="translate(114.23,86.16)">
    <circle cx="0" cy="0" r="0.92" class="primitive"/>
  </g>
  <g transform="translate(136.14,46.13)">
    <circle cx="0" cy="0" r="0.92" class="primitive"/>
  </g>
  <g transform="translate(107.53,79.54)">
    <circle cx="0" cy="0" r="0.92" class="primitive"/>
  </g>
  <g transform="translate(67.72,136.32)">
    <circle cx="0" cy="0" r="0.92" class="primitive"/>
  </g>
  <g transform="translate(142.23,100.69)">
    <circle cx="0" cy="0" r="0.92" class="primitive"/>
  </g>
  <g transform="translate(138.59,110.72)">
    <circle cx="0" cy="0" r="0.92" class="primitive"/>
  </g>
  <g transform="translate(94.45,21.68)">
    <circle cx="0" cy="0" r="0.92" class="primitive"/>
  </g>
  <g transform="translate(93.14,115.1)">
    <circle cx="0" cy="0" r="0.92" class="primitive"/>
  </g>
  <g transform="translate(46.06,77.11)">
    <circle cx="0" cy="0" r="0.92" class="primitive"/>
  </g>
  <g transform="translate(66.01,115.83)">
    <circle cx="0" cy="0" r="0.92" class="primitive"/>
  </g>
  <g transform="translate(111.69,52.01)">
    <circle cx="0" cy="0" r="0.92" class="primitive"/>
  </g>
  <g transform="translate(135.23,112.84)">
    <circle cx="0" cy="0" r="0.92" class="primitive"/>
  </g>
  <g transform="translate(86.92,117.58)">
    <circle cx="0" cy="0" r="0.92" class="primitive"/>
  </g>
  <g transform="translate(137.05,65.4)">
    <circle cx="0" cy="0" r="0.92" class="primitive"/>
  </g>
  <g transform="translate(34.52,116.6)">
    <circle cx="0" cy="0" r="0.92" class="primitive"/>
  </g>
  <g transform="translate(127.19,129.7)">
    <circle cx="0" cy="0" r="0.92" class="primitive"/>
  </g>
  <g transform="translate(78.89,45.15)">
    <circle cx="0" cy="0" r="0.92" class="primitive"/>
  </g>
  <g transform="translate(23.46,73.48)">
    <circle cx="0" cy="0" r="0.92" class="primitive"/>
  </g>
  <g transform="translate(128.07,38.66)">
    <circle cx="0" cy="0" r="0.92" class="primitive"/>
  </g>
  <g transform="translate(113.35,105.56)">
    <circle cx="0" cy="0" r="0.92" class="primitive"/>
  </g>
  <g transform="translate(42.21,72.15)">
    <circle cx="0" cy="0" r="0.92" class="primitive"/>
  </g>
  <g transform="translate(142.6,68.5)">
    <circle cx="0" cy="0" r="0.92" class="primitive"/>
  </g>
  <g transform="translate(40.78,106)">
    <circle cx="0" cy="0" r="0.92" class="primitive"/>
  </g>
  <g transform="translate(129.9,118.42)">
    <circle cx="0" cy="0" r="0.92" class="primitive"/>
  </g>
  <g transform="translate(68.72,137.23)">
    <circle cx="0" cy="0" r="0.92" class="primitive"/>
  </g>
  <g transform="translate(47.9,90.61)">
    <circle cx="0" cy="0" r="0.92" class="primitive"/>
  </g>
  <g transform="translate(45.19,24.27)">
    <circle cx="0" cy="0" r="0.92" class="primitive"/>
  </g>
  <g transform="translate(133.59,120.81)">
    <circle cx="0" cy="0" r="0.92" class="primitive"/>
  </g>
  <g transform="translate(66.7,108.06)">
    <circle cx="0" cy="0" r="0.92" class="primitive"/>
  </g>
  <g transform="translate(90.12,145.02)">
    <circle cx="0" cy="0" r="0.92" class="primitive"/>
  </g>
  <g transform="translate(41.96,79.19)">
    <circle cx="0" cy="0" r="0.92" class="primitive"/>
  </g>
  <g transform="translate(53.81,107.41)">
    <circle cx="0" cy="0" r="0.92" class="primitive"/>
  </g>
  <g transform="translate(109.31,18.55)">
    <circle cx="0" cy="0" r="0.92" class="primitive"/>
  </g>
  <g transform="translate(125.91,83.64)">
    <circle cx="0" cy="0" r="0.92" class="primitive"/>
  </g>
  <g transform="translate(91.15,113.1)">
    <circle cx="0" cy="0" r="0.92" class="primitive"/>
  </g>
  <g transform="translate(39.67,57.93)">
    <circle cx="0" cy="0" r="0.92" class="primitive"/>
  </g>
  <g transform="translate(133.3,43.68)">
    <circle cx="0" cy="0" r="0.92" class="primitive"/>
  </g>
  <g transform="translate(100.24,141.04)">
    <circle cx="0" cy="0" r="0.92" class="primitive"/>
  </g>
  <g transform="translate(137.32,115.69)">
    <circle cx="0" cy="0" r="0.92" class="primitive"/>
  </g>
  <g transform="translate(112.61,107.44)">
    <circle cx="0" cy="0" r="0.92" class="primitive"/>
  </g>
  <g transform="translate(65.39,119.16)">
    <circle cx="0" cy="0" r="0.92" class="primitive"/>
  </g>
  <g transform="translate(123.19,32.21)">
    <circle cx="0" cy="0" r="0.92" class="primitive"/>
  </g>
  <g transform="translate(130.92,118.35)">
    <circle cx="0" cy="0" r="0.92" class="primitive"/>
  </g>
  <g transform="translate(98.52,58.73)">
    <circle cx="0" cy="0" r="0.92" class="primitive"/>
  </g>
  <g transform="translate(97.94,14.07)">
    <circle cx="0" cy="0" r="0.92" class="primitive"/>
  </g>
  <g transform="translate(34.17,124.61)">
    <circle cx="0" cy="0" r="0.92" class="primitive"/>
  </g>
  <g transform="translate(100.99,16.48)">
    <circle cx="0" cy="0" r="0.92" class="primitive"/>
  </g>
  <g transform="translate(35.25,30.04)">
    <circle cx="0" cy="0" r="0.92" class="primitive"/>
  </g>
  <g transform="translate(44.83,76.04)">
    <circle cx="0" cy="0" r="0.92" class="primitive"/>
  </g>
  <g transform="translate(62.45,48.17)">
    <circle cx="0" cy="0" r="0.92" class="primitive"/>
  </g>
  <g transform="translate(93.74,40.94)">
    <circle cx="0" cy="0" r="0.92" class="primitive"/>
  </g>
  <g transform="translate(110.97,46.43)">
    <circle cx="0" cy="0" r="0.92" class="primitive"/>
  </g>
  <g transform="translate(111.9,85.45)">
    <circle cx="0" cy="0" r="0.92" class="primitive"/>
  </g>
  <g transform="translate(84.69,46.74)">
    <circle cx="0" cy="0" r="0.92" class="primitive"/>
  </g>
  <g transform="translate(108.58,59.64)">
    <circle cx="0" cy="0" r="0.92" class="primitive"/>
  </g>
  <g transform="translate(143.7,56.45)">
    <circle cx="0" cy="0" r="0.92" class="primitive"/>
  </g>
  <g transform="translate(28,38.39)">
    <circle cx="0" cy="0" r="0.92" class="primitive"/>
  </g>
  <g transform="translate(60.57,44.83)">
    <circle cx="0" cy="0" r="0.92" class="primitive"/>
  </g>
  <g transform="translate(126.83,30.15)">
    <circle cx="0" cy="0" r="0.92" class="primitive"/>
  </g>
  <g transform="translate(50.71,34.54)">
    <circle cx="0" cy="0" r="0.92" class="primitive"/>
  </g>
  <g transform="translate(76.32,119.69)">
    <circle cx="0" cy="0" r="0.92" class="primitive"/>
  </g>
  <g transform="translate(136.54,95.57)">
    <circle cx="0" cy="0" r="0.92" class="primitive"/>
  </g>
  <g transform="translate(37.4,129.97)">
    <circle cx="0" cy="0" r="0.92" class="primitive"/>
  </g>
  <g transform="translate(140.87,50.91)">
    <circle cx="0" cy="0" r="0.92" class="primitive"/>
  </g>
  <g transform="translate(128.73,33.88)">
    <circle cx="0" cy="0" r="0.92" class="primitive"/>
  </g>
  <g transform="translate(23.22,72.42)">
    <circle cx="0" cy="0" r="0.92" class="primitive"/>
  </g>
  <g transform="translate(123.18,126.18)">
    <circle cx="0" cy="0" r="0.92" class="primitive"/>
  </g>
  <g transform="translate(41.59,107.11)">
    <circle cx="0" cy="0" r="0.92" class="primitive"/>
  </g>
  <g transform="translate(73.26,144.64)">
    <circle cx="0" cy="0" r="0.92" class="primitive"/>
  </g>
  <g transform="translate(95.44,38.94)">
    <circle cx="0" cy="0" r="0.92" class="primitive"/>
  </g>
  <g transform="translate(96.47,101.18)">
    <circle cx="0" cy="0" r="0.92" class="primitive"/>
  </g>
  <g transform="translate(64.63,109.55)">
    <circle cx="0" cy="0" r="0.92" class="primitive"/>
  </g>
  <g transform="translate(61.48,46.47)">
    <circle cx="0" cy="0" r="0.92" class="primitive"/>
  </g>
  <g transform="translate(95.62,145.54)">
    <circle cx="0" cy="0" r="0.92" class="primitive"/>
  </g>
  <g transform="translate(25.98,89.52)">
    <circle cx="0" cy="0" r="0.92" class="primitive"/>
  </g>
  <g transform="translate(83.66,44.6)">
    <circle cx="0" cy="0" r="0.92" class="primitive"/>
  </g>
  <g transform="translate(23.61,74.31)">
    <circle cx="0" cy="0" r="0.92" class="primitive"/>
  </g>
  <g transform="translate(92.4,111.93)">
    <circle cx="0" cy="0" r="0.92" class="primitive"/>
  </g>
  <g transform="translate(81.15,15.98)">
    <circle cx="0" cy="0" r="0.92" class="primitive"/>
  </g>
  <g transform="translate(140.53,79)">
    <circle cx="0" cy="0" r="0.92" class="primitive"/>
  </g>
  <g transform="translate(107.53,52.93)">
    <circle cx="0" cy="0" r="0.92" class="primitive"/>
  </g>
  <g transform="translate(27.26,42.9)">
    <circle cx="0" cy="0" r="0.92" class="primitive"/>
  </g>
  <g transform="translate(51.88,19.68)">
    <circle cx="0" cy="0" r="0.92" class="primitive"/>
  </g>
  <g transform="translate(34.36,38.7)">
    <circle cx="0" cy="0" r="0.92" class="primitive"/>
  </g>
  <g transform="translate(77.03,43.93)">
    <circle cx="0" cy="0" r="0.92" class="primitive"/>
  </g>
  <g transform="translate(139.45,78.14)">
    <circle cx="0" cy="0" r="0.92" class="primitive"/>
  </g>
  <g transform="translate(146.67,93.11)">
    <circle cx="0" cy="0" r="0.92" class="primitive"/>
  </g>
  <g transform="translate(35.32,37.72)">
    <circle cx="0" cy="0" r="0.92" class="primitive"/>
  </g>
  <g transform="translate(146.61,70)">
    <circle cx="0" cy="0" r="0.92" class="primitive"/>
  </g>
  <g transform="translate(102.47,59.08)">
    <circle cx="0" cy="0" r="0.92" class="primitive"/>
  </g>
  <g transform="translate(119.53,133.11)">
    <circle cx="0" cy="0" r="0.92" class="primitive"/>
  </g>
  <g transform="translate(49.33,34.76)">
    <circle cx="0" cy="0" r="0.92" class="primitive"/>
  </g>
  <g transform="translate(115,83.03)">
    <circle cx="0" cy="0" r="0.92" class="primitive"/>
  </g>
  <g transform="translate(113.14,88.06)">
    <circle cx="0" cy="0" r="0.92" class="primitive"/>
  </g>
  <g transform="translate(105.78,80.98)">
    <circle cx="0" cy="0" r="0.92" class="primitive"/>
  </g>
  <g transform="translate(52.71,51.78)">
    <circle cx="0" cy="0" r="0.92" class="primitive"/>
  </g>
  <g transform="translate(15.9,74.15)">
    <circle cx="0" cy="0" r="0.92" class="primitive"/>
  </g>
  <g transform="translate(52.24,61.95)">
    <circle cx="0" cy="0" r="0.92" class="primitive"/>
  </g>
  <g transform="translate(56.22,20.38)">
    <circle cx="0" cy="0" r="0.92" class="primitive"/>
  </g>
  <g transform="translate(22.39,110.69)">
    <circle cx="0" cy="0" r="0.92" class="primitive"/>
  </g>
  <g transform="translate(91.79,45.94)">
    <circle cx="0" cy="0" r="0.92" class="primitive"/>
  </g>
  <g transform="translate(52.49,107.39)">
    <circle cx="0" cy="0" r="0.92" class="primitive"/>
  </g>
  <g transform="translate(123.15,104.45)">
    <circle cx="0" cy="0" r="0.92" class="primitive"/>
  </g>
  <g transform="translate(101.17,110.47)">
    <circle cx="0" cy="0" r="0.92" class="primitive"/>
  </g>
  <g transform="translate(76.93,21.83)">
    <circle cx="0" cy="0" r="0.92" class="primitive"/>
  </g>
  <g transform="translate(133.49,40.36)">
    <circle cx="0" cy="0" r="0.92" class="primitive"/>
  </g>
  <g transform="translate(86.75,141.63)">
    <circle cx="0" cy="0" r="0.92" class="primitive"/>
  </g>
  <g transform="translate(133.53,34.68)">
    <circle cx="0" cy="0" r="0.92" class="primitive"/>
  </g>
  <g transform="translate(47.66,21.42)">
    <circle cx="0" cy="0" r="0.92" class="primitive"/>
  </g>
  <g transform="translate(98.33,103.59)">
    <circle cx="0" cy="0" r="0.92" class="primitive"/>
  </g>
  <g transform="translate(87.39,48.62)">
    <circle cx="0" cy="0" r="0.92" class="primitive"/>
  </g>
  <g transform="translate(54.58,105.98)">
    <circle cx="0" cy="0" r="0.92" class="primitive"/>
  </g>
  <g transform="translate(90.16,46.87)">
    <circle cx="0" cy="0" r="0.92" class="primitive"/>
  </g>
  <g transform="translate(143.28,88.32)">
    <circle cx="0" cy="0" r="0.92" class="primitive"/>
  </g>
  <g transform="translate(113.74,84.19)">
    <circle cx="0" cy="0" r="0.92" class="primitive"/>
  </g>
  <g transform="translate(88.48,46.85)">
    <circle cx="0" cy="0" r="0.92" class="primitive"/>
  </g>
  <g transform="translate(35.3,132.23)">
    <circle cx="0" cy="0" r="0.92" class="primitive"/>
  </g>
  <g transform="translate(51.34,50.09)">
    <circle cx="0" cy="0" r="0.92" class="primitive"/>
  </g>
  <g transform="translate(23.27,44.05)">
    <circle cx="0" cy="0" r="0.92" class="primitive"/>
  </g>
  <g transform="translate(126.07,85.03)">
    <circle cx="0" cy="0" r="0.92" class="primitive"/>
  </g>
  <g transform="translate(41.48,91.47)">
    <circle cx="0" cy="0" r="0.92" class="primitive"/>
  </g>
  <g transform="translate(25.51,91.1)">
    <circle cx="0" cy="0" r="0.92" class="primitive"/>
  </g>
  <g transform="translate(86.51,78.61)">
    <circle cx="0" cy="0" r="0.92" class="primitive"/>
  </g>
  <g transform="translate(114.12,90)">
    <circle cx="0" cy="0" r="0.92" class="primitive"/>
  </g>
  <g transform="translate(85.27,117.15)">
    <circle cx="0" cy="0" r="0.92" class="primitive"/>
  </g>
  <g transform="translate(15.36,84.56)">
    <circle cx="0" cy="0" r="0.92" class="primitive"/>
  </g>
  <g transform="translate(79.2,138.73)">
    <circle cx="0" cy="0" r="0.92" class="primitive"/>
  </g>
  <g transform="translate(51.41,106.46)">
    <circle cx="0" cy="0" r="0.92" class="primitive"/>
  </g>
  <g transform="translate(29.45,117.29)">
    <circle cx="0" cy="0" r="0.92" class="primitive"/>
  </g>
  <g transform="translate(119.07,23.3)">
    <circle cx="0" cy="0" r="0.92" class="primitive"/>
  </g>
  <g transform="translate(15.73,69.2)">
    <circle cx="0" cy="0" r="0.92" class="primitive"/>
  </g>
  <g transform="translate(42.55,27.99)">
    <circle cx="0" cy="0" r="0.92" class="primitive"/>
  </g>
  <g transform="translate(36.59,32.62)">
    <circle cx="0" cy="0" r="0.92" class="primitive"/>
  </g>
  <g transform="translate(65.01,121.74)">
    <circle cx="0" cy="0" r="0.92" class="primitive"/>
  </g>
  <g transform="translate(140.67,54.62)">
    <circle cx="0" cy="0" r="0.92" class="primitive"/>
  </g>
  <g transform="translate(90.19,33.06)">
    <circle cx="0" cy="0" r="0.92" class="primitive"/>
  </g>
  <g transform="translate(47.93,27.56)">
    <circle cx="0" cy="0" r="0.92" class="primitive"/>
  </g>
  <g transform="translate(89.67,74.84)">
    <circle cx="0" cy="0" r="0.92" class="primitive"/>
  </g>
  <g transform="translate(136.88,97.43)">
    <circle cx="0" cy="0" r="0.92" class="primitive"/>
  </g>
  <g transform="translate(45.58,129.86)">
    <circle cx="0" cy="0" r="0.92" class="primitive"/>
  </g>
  <g transform="translate(107.77,81.16)">
    <circle cx="0" cy="0" r="0.92" class="primitive"/>
  </g>
  <g transform="translate(114.76,104.53)">
    <circle cx="0" cy="0" r="0.92" class="primitive"/>
  </g>
  <g transform="translate(110.5,139.33)">
    <circle cx="0" cy="0" r="0.92" class="primitive"/>
  </g>
  <g transform="translate(17.35,91.26)">
    <circle cx="0" cy="0" r="0.92" class="primitive"/>
  </g>
  <g transform="translate(104.41,75.75)">
    <circle cx="0" cy="0" r="0.92" class="primitive"/>
  </g>
  <g transform="translate(114.3,50.8)">
    <circle cx="0" cy="0" r="0.92" class="primitive"/>
  </g>
  <g transform="translate(48.93,107.58)">
    <circle cx="0" cy="0" r="0.92" class="primitive"/>
  </g>
  <g transform="translate(57.02,128.63)">
    <circle cx="0" cy="0" r="0.92" class="primitive"/>
  </g>
  <g transform="translate(90.66,40.55)">
    <circle cx="0" cy="0" r="0.92" class="primitive"/>
  </g>
  <g transform="translate(54.45,126.19)">
    <circle cx="0" cy="0" r="0.92" class="primitive"/>
  </g>
  <g transform="translate(89.18,113.07)">
    <circle cx="0" cy="0" r="0.92" class="primitive"/>
  </g>
  <g transform="translate(137.23,94.05)">
    <circle cx="0" cy="0" r="0.92" class="primitive"/>
  </g>
  <g transform="translate(44.26,78.53)">
    <circle cx="0" cy="0" r="0.92" class="primitive"/>
  </g>
  <g transform="translate(112.69,109.59)">
    <circle cx="0" cy="0" r="0.92" class="primitive"/>
  </g>
  <g transform="translate(146.14,79.23)">
    <circle cx="0" cy="0" r="0.92" class="primitive"/>
  </g>
  <g transform="translate(58.54,137.01)">
    <circle cx="0" cy="0" r="0.92" class="primitive"/>
  </g>
  <g transform="translate(91.53,43.69)">
    <circle cx="0" cy="0" r="0.92" class="primitive"/>
  </g>
  <g transform="translate(56.3,126.88)">
    <circle cx="0" cy="0" r="0.92" class="primitive"/>
  </g>
  <g transform="translate(88.55,16.74)">
    <circle cx="0" cy="0" r="0.92" class="primitive"/>
  </g>
  <g transform="translate(138.89,47.67)">
    <circle cx="0" cy="0" r="0.92" class="primitive"/>
  </g>
  <g transform="translate(102.31,39.21)">
    <circle cx="0" cy="0" r="0.92" class="primitive"/>
  </g>
  <g transform="translate(106.35,141.27)">
    <circle cx="0" cy="0" r="0.92" class="primitive"/>
  </g>
  <g transform="translate(24.33,54.99)">
    <circle cx="0" cy="0" r="0.92" class="primitive"/>
  </g>
  <g transform="translate(31.51,126.58)">
    <circle cx="0" cy="0" r="0.92" class="primitive"/>
  </g>
  <g transform="translate(13.33,78.08)">
    <circle cx="0" cy="0" r="0.92" class="primitive"/>
  </g>
  <g transform="translate(142.32,89.23)">
    <circle cx="0" cy="0" r="0.92" class="primitive"/>
  </g>
  <g transform="translate(113.47,20.19)">
    <circle cx="0" cy="0" r="0.92" class="primitive"/>
  </g>
  <g transform="translate(100.93,108.61)">
    <circle cx="0" cy="0" r="0.92" class="primitive"/>
  </g>
  <g transform="translate(86.61,115.43)">
    <circle cx="0" cy="0" r="0.92" class="primitive"/>
  </g>
  <g transform="translate(57.22,17.07)">
    <circle cx="0" cy="0" r="0.92" class="primitive"/>
  </g>
  <g transform="translate(42.23,59.4)">
    <circle cx="0" cy="0" r="0.92" class="primitive"/>
  </g>
  <g transform="translate(19.11,61.81)">
    <circle cx="0" cy="0" r="0.92" class="primitive"/>
  </g>
  <g transform="translate(57.89,121.02)">
    <circle cx="0" cy="0" r="0.92" class="primitive"/>
  </g>
  <g transform="translate(94.61,98.79)">
    <circle cx="0" cy="0" r="0.92" class="primitive"/>
  </g>
  <g transform="translate(20.5,112.55)">
    <circle cx="0" cy="0" r="0.92" class="primitive"/>
  </g>
  <g transform="translate(95.04,115.33)">
    <circle cx="0" cy="0" r="0.92" class="primitive"/>
  </g>
  <g transform="translate(120.05,104.49)">
    <circle cx="0" cy="0" r="0.92" class="primitive"/>
  </g>
  <g transform="translate(49.26,27.2)">
    <circle cx="0" cy="0" r="0.92" class="primitive"/>
  </g>
  <g transform="translate(84.2,78.58)">
    <circle cx="0" cy="0" r="0.92" class="primitive"/>
  </g>
  <g transform="translate(42.12,132.53)">
    <circle cx="0" cy="0" r="0.92" class="primitive"/>
  </g>
  <g transform="translate(93.07,96.75)">
    <circle cx="0" cy="0" r="0.92" class="primitive"/>
  </g>
  <g transform="translate(129.06,118.74)">
    <circle cx="0" cy="0" r="0.92" class="primitive"/>
  </g>
  <g transform="translate(17.4,54.37)">
    <circle cx="0" cy="0" r="0.92" class="primitive"/>
  </g>
  <g transform="translate(123.19,26.28)">
    <circle cx="0" cy="0" r="0.92" class="primitive"/>
  </g>
  <g transform="translate(62.06,16.53)">
    <circle cx="0" cy="0" r="0.92" class="primitive"/>
  </g>
  <g transform="translate(63.63,50.35)">
    <circle cx="0" cy="0" r="0.92" class="primitive"/>
  </g>
  <g transform="translate(68.47,13.33)">
    <circle cx="0" cy="0" r="0.92" class="primitive"/>
  </g>
  <g transform="translate(14.12,88.91)">
    <circle cx="0" cy="0" r="0.92" class="primitive"/>
  </g>
  <g transform="translate(59.81,137.52)">
    <circle cx="0" cy="0" r="0.92" class="primitive"/>
  </g>
  <g transform="translate(145.41,84.55)">
    <circle cx="0" cy="0" r="0.92" class="primitive"/>
  </g>
  <g transform="translate(56.75,141.22)">
    <circle cx="0" cy="0" r="0.92" class="primitive"/>
  </g>
  <g transform="translate(41.87,92.93)">
    <circle cx="0" cy="0" r="0.92" class="primitive"/>
  </g>
  <g transform="translate(39.29,28.08)">
    <circle cx="0" cy="0" r="0.92" class="primitive"/>
  </g>
  <g transform="translate(89.04,48.1)">
    <circle cx="0" cy="0" r="0.92" class="primitive"/>
  </g>
  <g transform="translate(20.16,105.63)">
    <circle cx="0" cy="0" r="0.92" class="primitive"/>
  </g>
  <g transform="translate(54.59,88.86)">
    <circle cx="0" cy="0" r="0.92" class="primitive"/>
  </g>
  <g transform="translate(136.53,99.06)">
    <circle cx="0" cy="0" r="0.92" class="primitive"/>
  </g>
</g>
<g font-size="4" stroke="#000000" stroke-opacity="0.000" fill="#000000" id="img-39330679-5">
</g>
</svg>
